<?xml version="1.0" encoding="UTF-8"?>
<!-- Generator: visioncortex VTracer 0.6.12 -->
<svg version="1.1" xmlns="http://www.w3.org/2000/svg" width="288" height="360" viewBox="0 0 1024 1280">
<path d="M0 0 C0.26 0.08 0.26 0.08 1.59 0.5 C4.63 1.13 7.47 1.06 10.56 1 C26.53 0.87 40.32 3.95 55 10 C57.47 11 59.91 11.97 62.44 12.81 C66.29 14.6 70.07 17.14 72 21 C73.64 21.72 75.31 22.39 77 23 C77 23.66 77 24.32 77 25 C77.24 25.06 77.24 25.06 78.44 25.38 C80 26 80 26 81 28 C82.63 28.85 82.63 28.85 84.56 29.62 C85.2 29.89 85.84 30.15 86.5 30.41 C86.75 30.51 86.75 30.51 88 31 C88 31.66 88 32.32 88 33 C88.99 33.33 89.98 33.66 91 34 C91.1 34.76 91.21 35.53 91.31 36.31 C92.06 39.24 92.89 39.98 95 42 C95 42.99 95 43.98 95 45 C95.66 45.33 96.32 45.66 97 46 C97.63 47.34 97.63 47.34 98.12 48.94 C98.29 49.46 98.46 49.99 98.63 50.53 C99 52 99 52 99 54 C99.47 54.11 99.95 54.22 100.43 54.34 C102 55 102 55 103.06 57.62 C103.57 59.37 104.03 61.12 104.5 62.88 C104.66 63.5 104.83 64.12 105 64.75 C105.14 65.32 105.29 65.89 105.44 66.48 C106 68 106 68 108 70 C107.97 72.09 107.45 73.95 107 76 C107.66 76 108.32 76 109 76 C109.53 78.08 110.05 80.16 110.56 82.25 C110.71 82.84 110.87 83.42 111.02 84.03 C111.84 87.41 112.11 89.62 111 93 C111.14 93.72 111.29 94.44 111.44 95.19 C112.23 99.13 112.08 102.99 112 107 C112.33 107 112.66 107 113 107 C112.45 112.01 111.89 117.02 111.25 122.03 C111.08 123.37 110.93 124.72 110.79 126.07 C110.32 130.33 109.44 133.96 108 138 C107.64 139.66 107.31 141.33 107 143 C106.68 144.34 106.34 145.67 106 147 C105.34 147 104.68 147 104 147 C103.99 147.35 103.99 147.35 103.96 149.12 C103.65 155.31 102.88 159.23 99.06 164.34 C98 166 98 166 98 169 C97.34 169.66 96.68 170.32 96 171 C95.53 172.38 95.06 173.76 94.63 175.14 C93.87 177.39 92.99 179.57 92.06 181.75 C91.74 182.51 91.43 183.27 91.1 184.05 C89.92 186.15 88.98 186.73 87 188 C86.34 189.44 86.34 189.44 85.94 191 C85.28 193.51 84.97 194.03 83 196 C82.71 196.62 82.42 197.24 82.12 197.88 C81 200 81 200 79.06 201.81 C76.35 204.36 75.32 207.59 74 211 C72.57 214.37 70.54 216.79 68.18 219.54 C66.81 221.24 65.85 222.99 65 225 C64.34 225 63.68 225 63 225 C62.67 226.65 62.34 228.3 62 230 C61.01 229.67 60.02 229.34 59 229 C58.9 229.93 58.79 230.86 58.69 231.81 C58.21 234.77 57.33 236.05 55 238 C54.67 238.66 54.34 239.32 54 240 C53.34 240 52.68 240 52 240 C51.88 240.44 51.88 240.44 51.25 242.69 C50.11 246.09 48.36 248.35 46 251 C45.1 252.04 44.2 253.08 43.31 254.12 C42.9 254.6 42.48 255.08 42.05 255.57 C41 257 41 257 40.52 258.49 C39.66 260.99 37.8 262.66 36.06 264.6 C35 266 35 266 35 268 C34.01 268.95 33.02 269.91 32.02 270.85 C30.38 272.7 29.78 274.67 29 277 C28.34 277 27.68 277 27 277 C26.97 277.42 26.97 277.42 26.81 279.56 C26.02 284.39 22.86 288.24 19.38 291.54 C17.51 293.52 17.36 295.35 17 298 C16.34 298 15.68 298 15 298 C14.71 298.72 14.42 299.44 14.12 300.19 C13.08 302.79 12.04 305.4 11 308 C10.34 308 9.68 308 9 308 C9 308.99 9 309.98 9 311 C8.34 311 7.68 311 7 311 C6.75 311.85 6.5 312.69 6.25 313.56 C4.71 318.2 2.46 322.54 -1 326 C-1.71 327.48 -2.37 328.98 -3 330.5 C-4.15 333.27 -4.86 334.86 -7 337 C-7.33 337.85 -7.66 338.69 -8 339.56 C-9 342 -9 342 -11 343 C-11.96 344.79 -11.96 344.79 -12.94 347.06 C-13.29 347.87 -13.63 348.69 -13.99 349.52 C-15.15 352.38 -16.22 355.25 -17.28 358.14 C-18.34 360.87 -19.64 363.41 -21 366 C-21.33 366.66 -21.66 367.32 -22 368 C-22.66 368 -23.32 368 -24 368 C-24.05 368.21 -24.05 368.21 -24.33 369.29 C-25.37 373.12 -26.66 376.68 -28.28 380.3 C-28.98 381.95 -29.53 383.6 -30.06 385.31 C-31 388 -31 388 -33 390 C-34.37 392.43 -35.51 394.97 -36.69 397.5 C-37.02 398.19 -37.35 398.88 -37.7 399.59 C-38.01 400.25 -38.32 400.91 -38.64 401.59 C-38.78 401.9 -38.78 401.9 -39.5 403.43 C-40 405 -40 405 -39 407 C-39.23 407.25 -39.23 407.25 -40.38 408.5 C-42.25 411.38 -42.81 413.86 -43.47 417.2 C-44 419 -44 419 -46 421 C-46.34 422.33 -46.67 423.66 -47 425 C-47.78 426.56 -48.6 428.1 -49.44 429.62 C-51.66 433.95 -52.75 437.84 -53.54 442.61 C-54.24 446.26 -55.58 449.58 -57 453 C-57.31 453.8 -57.62 454.61 -57.94 455.44 C-59.25 458.6 -60.67 461.71 -62.1 464.82 C-63.38 467.91 -64.05 470.27 -63.81 473.62 C-63.72 477.58 -65.45 480.82 -66.99 484.39 C-68.25 487.64 -68.87 490.85 -69.41 494.29 C-69.6 494.85 -69.8 495.42 -70 496 C-71.56 496.75 -71.56 496.75 -73 497 C-72.79 497.54 -72.59 498.07 -72.38 498.62 C-71.96 501.27 -72.47 502.89 -73.39 505.36 C-74.02 507.06 -74.52 508.76 -75 510.5 C-75.61 512.69 -76.28 514.81 -77.06 516.94 C-77.86 519.26 -78.2 521.43 -78.44 523.88 C-78.83 527.6 -79.91 530.72 -81.3 534.18 C-82.42 537.1 -83.31 539.72 -82.56 542.81 C-82.38 543.2 -82.19 543.6 -82 544 C-82.66 544.66 -83.32 545.32 -84 546 C-84.6 547.59 -84.6 547.59 -85.06 549.38 C-85.22 549.96 -85.37 550.55 -85.54 551.15 C-85.85 552.38 -86.15 553.62 -86.46 554.86 C-86.88 556.52 -87.31 558.18 -87.75 559.84 C-88.02 560.87 -88.29 561.9 -88.56 562.94 C-88.7 563.45 -88.84 563.96 -88.98 564.49 C-89.82 567.74 -90.1 570.62 -90 574 C-90.38 575.91 -90.92 577.73 -91.48 579.59 C-92.32 582.48 -93.08 585.27 -93.5 588.25 C-93.98 590.86 -94.51 591.91 -96 594 C-96 594.99 -96 595.98 -96 597 C-96.38 599.63 -96.38 599.63 -97 602 C-97.66 602.33 -98.32 602.66 -99 603 C-99 603.99 -99 604.98 -99 606 C-101.15 621.85 -101.15 621.85 -104.56 625.81 C-106.5 628.77 -106.5 631.4 -106.69 634.88 C-107.02 637.15 -107.63 638.2 -109 640 C-109.62 641.69 -109.62 641.69 -110 643 C-110.66 643 -111.32 643 -112 643 C-112.05 643.46 -112.1 643.92 -112.15 644.39 C-112.59 648.02 -113.2 650.77 -115 654 C-115 654.66 -115 655.32 -115 656 C-115.66 656 -116.32 656 -117 656 C-117 657.32 -117 658.64 -117 660 C-117.66 660 -118.32 660 -119 660 C-118.79 660.62 -118.59 661.24 -118.38 661.88 C-118.25 662.58 -118.13 663.28 -118 664 C-118.66 664.66 -119.32 665.32 -120 666 C-121.07 668.15 -121.72 670.27 -122.4 672.56 C-123 674 -123 674 -125 676 C-125.78 677.5 -126.45 679.02 -127.12 680.56 C-128 682 -128 682 -129.5 682.97 C-131.39 684.27 -131.77 685.37 -132.56 687.5 C-133.66 690.42 -134.9 691.96 -137.18 694.11 C-139.32 696.16 -140.97 697.94 -142.5 700.5 C-145.09 704.82 -148.79 708.24 -153 711 C-153.66 711 -154.32 711 -155 711 C-155 711.66 -155 712.32 -155 713 C-156.02 714.07 -156.02 714.07 -157.38 715.12 C-157.82 715.48 -158.26 715.83 -158.71 716.2 C-160 717 -160 717 -162 717 C-162.06 717.45 -162.12 717.91 -162.19 718.38 C-163 720 -163 720 -165.25 720.88 C-167.92 721.97 -168.59 722.5 -170.38 724.56 C-172.87 727.28 -175.04 727.67 -178.64 727.96 C-179.09 727.97 -179.54 727.99 -180 728 C-180 728.66 -180 729.32 -180 730 C-181.19 730.47 -182.37 730.95 -183.56 731.42 C-184.95 731.98 -186.32 732.58 -187.69 733.19 C-188.45 733.46 -189.21 733.72 -190 734 C-190.66 733.67 -191.32 733.34 -192 733 C-192.33 733.66 -192.66 734.32 -193 735 C-195.33 735.6 -195.33 735.6 -198.25 736.06 C-198.73 736.14 -198.73 736.14 -201.14 736.54 C-202.08 736.69 -203.03 736.84 -204 737 C-204.77 737.17 -205.55 737.35 -206.35 737.52 C-209.95 738.17 -213.54 738.37 -217.19 738.56 C-217.56 738.58 -217.56 738.58 -219.47 738.69 C-235.3 739.52 -235.3 739.52 -241 738 C-241 737.34 -241 736.68 -241 736 C-242.98 736.33 -244.96 736.66 -247 737 C-247 736.34 -247 735.68 -247 735 C-247.28 735.1 -247.28 735.1 -248.69 735.61 C-251.67 736.11 -253.19 735.39 -255.94 734.19 C-256.35 734.01 -256.35 734.01 -258.46 733.11 C-259.3 732.74 -260.14 732.38 -261 732 C-261.85 731.67 -262.69 731.33 -263.57 730.99 C-265.78 730.09 -267.88 729.09 -270 728 C-270.67 727.68 -271.34 727.36 -272.04 727.04 C-272.7 726.71 -273.37 726.39 -274.06 726.06 C-274.73 725.74 -275.41 725.43 -276.1 725.1 C-278.09 723.95 -279.41 722.65 -281 721 C-281.66 720.67 -282.32 720.34 -283 720 C-283.96 718.77 -284.92 717.55 -285.87 716.31 C-287.27 714.68 -288.95 713.51 -290.65 712.22 C-292.96 710.14 -294.64 707.59 -296.45 705.08 C-297.94 703.08 -299.52 701.23 -301.19 699.38 C-303.76 696.41 -305.41 693.56 -307 690 C-308.04 687.97 -309.09 685.95 -310.13 683.93 C-311.03 681.94 -311.63 680.15 -312 678 C-311.67 677.34 -311.34 676.68 -311 676 C-311.66 676 -312.32 676 -313 676 C-313.66 672.7 -314.32 669.4 -315 666 C-315.33 666 -315.66 666 -316 666 C-316 662.37 -316 658.74 -316 655 C-316.66 655 -317.32 655 -318 655 C-318.06 654.16 -318.12 653.33 -318.18 652.46 C-318.22 651.91 -318.26 651.36 -318.31 650.78 C-318.39 649.54 -318.48 648.29 -318.57 647.04 C-318.8 643.73 -319.05 640.42 -319.36 637.12 C-319.98 630.19 -320.08 624.19 -318.47 617.37 C-317.97 614.85 -318 612.56 -318 610 C-317.68 609 -317.35 608 -317 607 C-316.93 605.61 -316.91 604.21 -316.94 602.81 C-316.95 602.1 -316.96 601.38 -316.96 600.64 C-316.98 600.1 -316.99 599.56 -317 599 C-316.34 599 -315.68 599 -315 599 C-315 596.03 -315 593.06 -315 590 C-314.34 590 -313.68 590 -313 590 C-313.09 589.8 -313.09 589.8 -313.56 588.81 C-314.38 585.41 -313.08 582.23 -312 579 C-311.66 577.34 -311.33 575.67 -311 574 C-310.67 572.31 -310.33 570.62 -310 568.94 C-309.83 568.1 -309.67 567.26 -309.5 566.4 C-308.61 562.14 -307.4 558.11 -306 554 C-305.34 554 -304.68 554 -304 554 C-304.2 553.27 -304.4 552.54 -304.61 551.79 C-305.06 548.58 -304.58 547.23 -303.25 544.31 C-301.74 540.82 -300.47 537.41 -299.44 533.75 C-298.48 530.41 -297.36 527.49 -295.69 524.45 C-294.62 522.2 -294.09 519.83 -293.53 517.42 C-293 516 -293 516 -291 515 C-290.39 512.53 -290.04 510.06 -289.66 507.54 C-288.93 504.72 -287.86 503.22 -286 501 C-284.03 497.96 -282.82 495.5 -282 492 C-280.35 486.12 -277.99 480.84 -275.19 475.44 C-273.69 472.51 -272.46 469.66 -271.5 466.5 C-270.33 462.69 -268.76 459.19 -267 455.62 C-266.75 455.11 -266.5 454.6 -266.24 454.07 C-264.8 451.21 -263.3 449.26 -261 447 C-260.16 445.2 -260.16 445.2 -259.5 443.25 C-259.25 442.55 -259.01 441.86 -258.75 441.14 C-258.51 440.43 -258.26 439.73 -258 439 C-257.49 437.68 -256.97 436.37 -256.44 435.06 C-256.21 434.5 -255.98 433.93 -255.75 433.35 C-255 432 -255 432 -253 431 C-253 430.01 -253 429.02 -253 428 C-252.34 428 -251.68 428 -251 428 C-250.88 427.61 -250.75 427.22 -250.62 426.81 C-249.83 424.51 -248.92 422.26 -248 420 C-247.34 420 -246.68 420 -246 420 C-246.05 419.27 -246.1 418.54 -246.15 417.79 C-245.98 414.63 -245.22 413.02 -243.62 410.31 C-243.18 409.55 -242.74 408.78 -242.29 407.99 C-241 406 -241 406 -239 404 C-238.38 401.88 -238.38 401.88 -238 400 C-237.34 400 -236.68 400 -236 400 C-235.89 399.53 -235.78 399.06 -235.67 398.57 C-235.51 397.95 -235.35 397.33 -235.19 396.69 C-235.04 396.07 -234.89 395.46 -234.73 394.82 C-234 393 -234 393 -232.59 391.59 C-230.57 389.57 -229.64 387.46 -228.44 384.88 C-226.22 380.11 -226.22 380.11 -224 379 C-223.47 377.64 -223.47 377.64 -223 376 C-221.94 373.61 -220.78 371.28 -219.62 368.94 C-219.32 368.3 -219.02 367.66 -218.7 367.01 C-218.4 366.39 -218.1 365.78 -217.79 365.15 C-217.65 364.87 -217.65 364.87 -216.97 363.46 C-215.86 361.78 -214.69 361.07 -213 360 C-212.64 359.01 -212.31 358.01 -212 357 C-211.34 356.67 -210.68 356.34 -210 356 C-209.69 355.2 -209.38 354.39 -209.06 353.56 C-208 351 -208 351 -206.52 350.07 C-204.57 348.7 -204.32 347.63 -203.62 345.38 C-202.07 340.89 -199.99 336.71 -197 333 C-196.34 333 -195.68 333 -195 333 C-194.87 332.59 -194.73 332.18 -194.6 331.76 C-194.42 331.22 -194.24 330.68 -194.06 330.12 C-193.89 329.59 -193.71 329.06 -193.54 328.51 C-193 327 -193 327 -192 325 C-191.34 325 -190.68 325 -190 325 C-190 324.01 -190 323.02 -190 322 C-189.34 322 -188.68 322 -188 322 C-187 320 -187 320 -186.19 317.75 C-184.79 314.52 -183.02 311.86 -181 309 C-180.57 308.38 -180.14 307.77 -179.7 307.13 C-177.9 304.57 -176.22 302.22 -174 300 C-174 299.34 -174 298.68 -174 298 C-173.4 297.58 -172.81 297.15 -172.19 296.72 C-169.5 294.61 -168.42 292.51 -166.94 289.5 C-163.82 283.26 -163.82 283.26 -161 281 C-160.34 281 -159.68 281 -159 281 C-158.88 280.4 -158.75 279.8 -158.62 279.19 C-158.02 277.06 -157.43 275.68 -156 274 C-155.34 274 -154.68 274 -154 274 C-153.92 273.28 -153.83 272.56 -153.75 271.81 C-152.95 268.81 -151.95 267.38 -149.94 265.11 C-149 264 -149 264 -148 262 C-147.34 262 -146.68 262 -146 262 C-146 261.34 -146 260.68 -146 260 C-145.34 260 -144.68 260 -144 260 C-143.75 259.11 -143.5 258.23 -143.25 257.31 C-142.3 254.46 -141.03 252.6 -139.07 250.35 C-137.85 248.81 -136.98 247.23 -136.06 245.5 C-134.43 242.53 -132.58 240.36 -130.1 238.07 C-129 237 -129 237 -127.81 235.19 C-127.54 234.8 -127.28 234.4 -127 234 C-126.34 234 -125.68 234 -125 234 C-124.88 233.59 -124.76 233.18 -124.63 232.76 C-124.47 232.22 -124.3 231.68 -124.12 231.12 C-124.04 230.86 -124.04 230.86 -123.63 229.51 C-123 228 -123 228 -121 226 C-120.3 224.68 -119.63 223.35 -119 222 C-117.81 219.48 -117 218 -115 216 C-111.05 210.86 -109.32 203.16 -109.58 196.75 C-110.34 193.59 -112.37 191.79 -115 190 C-118.05 188.21 -120.61 187.63 -124.12 187.31 C-124.56 187.27 -124.56 187.27 -126.76 187.05 C-129 187 -129 187 -131 188 C-132.73 188.05 -134.46 188.04 -136.19 188 C-140.6 187.97 -144.69 188.06 -149 189 C-149.33 189.66 -149.66 190.32 -150 191 C-150.76 190.98 -151.53 190.96 -152.31 190.94 C-155 191 -155 191 -156.62 191.56 C-158.4 192.13 -159.32 191.72 -161 191 C-161 191.66 -161 192.32 -161 193 C-161.42 193.05 -161.42 193.05 -163.56 193.31 C-166.07 193.72 -168.13 194.43 -170.44 195.5 C-172.93 196.65 -175.02 197.22 -177.75 197.5 C-180.83 197.83 -180.83 197.83 -182.44 199.5 C-184.69 201.66 -186.85 201.48 -189.88 201.76 C-195.4 202.38 -200.15 204.39 -205 207 C-208.85 208.93 -211.25 210.12 -215.62 210.06 C-216.44 210.05 -217.26 210.04 -218.1 210.04 C-218.41 210.03 -218.41 210.03 -220 210 C-220 210.66 -220 211.32 -220 212 C-220.47 212.06 -220.94 212.12 -221.43 212.18 C-222.05 212.27 -222.67 212.35 -223.31 212.44 C-223.62 212.48 -223.62 212.48 -225.18 212.68 C-228.33 213.23 -229.68 213.68 -232 216 C-234 216.69 -234 216.69 -236 217 C-236.66 216.67 -237.32 216.34 -238 216 C-238.33 216.66 -238.66 217.32 -239 218 C-240.6 218.6 -240.6 218.6 -242.62 219.06 C-243.34 219.23 -244.06 219.4 -244.8 219.57 C-247.37 220.07 -249.94 220.41 -252.55 220.66 C-254 221 -254 221 -256 223 C-257.33 222.67 -258.67 222.33 -260 222 C-262.15 222.52 -262.15 222.52 -264.38 223.38 C-267.96 224.67 -271.23 225.47 -275 226 C-275.66 226.16 -276.32 226.33 -277 226.5 C-281.67 227.67 -285.22 228.26 -290 227 C-290.33 227.66 -290.66 228.32 -291 229 C-317.57 229 -317.57 229 -326 228 C-326.63 227.93 -327.26 227.86 -327.9 227.78 C-332.07 227.25 -335.99 226.25 -340 225 C-340 224.34 -340 223.68 -340 223 C-340.36 222.98 -340.36 222.98 -342.15 222.85 C-343.07 222.78 -343.99 222.7 -344.94 222.62 C-345.85 222.56 -346.77 222.49 -347.71 222.41 C-348.47 222.28 -349.22 222.14 -350 222 C-350.33 221.34 -350.66 220.68 -351 220 C-352.81 219.44 -352.81 219.44 -355 219 C-357.19 218.56 -357.19 218.56 -359 218 C-359.33 217.34 -359.66 216.68 -360 216 C-361.48 215.8 -362.96 215.61 -364.44 215.41 C-367.07 214.72 -368.24 213.02 -370 211 C-371.25 210.37 -372.52 209.78 -373.81 209.25 C-376.19 207.89 -377.71 206.38 -379.59 204.41 C-381.13 202.87 -382.76 201.51 -384.44 200.12 C-393.85 192.12 -393.85 192.12 -394.88 187.06 C-394.92 186.38 -394.96 185.7 -395 185 C-395.23 184.95 -395.23 184.95 -396.39 184.72 C-398.59 183.73 -398.84 182.65 -399.69 180.44 C-399.94 179.8 -400.19 179.16 -400.45 178.5 C-400.63 178 -400.81 177.51 -401 177 C-401.33 177 -401.66 177 -402 177 C-402.12 176.52 -402.24 176.04 -402.37 175.54 C-402.53 174.91 -402.7 174.28 -402.88 173.62 C-403.04 173 -403.2 172.37 -403.37 171.73 C-404 170 -404 170 -406 168 C-406.49 166.14 -406.87 164.38 -407.19 162.5 C-407.28 162 -407.38 161.5 -407.47 160.99 C-408.13 157.26 -408.13 157.26 -407 155 C-407.66 155 -408.32 155 -409 155 C-409.06 154.49 -409.12 153.98 -409.18 153.46 C-409.57 150.27 -409.96 147.1 -410.56 143.94 C-411.06 140.58 -411.07 137.38 -411 134 C-411.01 133.39 -411.02 132.79 -411.02 132.16 C-410.99 129.43 -410.79 126.72 -410.56 124 C-410.54 123.74 -410.54 123.74 -410.44 122.42 C-410.2 119.51 -409.75 116.82 -409 114 C-408.63 112.09 -408.28 110.17 -407.94 108.25 C-407.85 107.74 -407.76 107.24 -407.66 106.71 C-407.44 105.48 -407.22 104.24 -407 103 C-406.34 103 -405.68 103 -405 103 C-405.04 102.07 -405.08 101.14 -405.12 100.19 C-405.25 97.43 -404.6 96.22 -403 94 C-402.52 92.95 -402.06 91.89 -401.62 90.81 C-399.94 86.78 -397.98 82.9 -396 79 C-395.65 78.3 -395.3 77.59 -394.94 76.87 C-393.21 73.42 -393.21 73.42 -392 72 C-391.01 72 -390.02 72 -389 72 C-388.95 71.64 -388.95 71.64 -388.7 69.79 C-387.45 64.81 -383.56 59.91 -379.43 56.82 C-378.3 56.19 -377.15 55.59 -376 55 C-376 54.34 -376 53.68 -376 53 C-375.34 52.83 -375.34 52.83 -372 52 C-372 51.34 -372 50.68 -372 50 C-370.57 48.85 -370.57 48.85 -368.69 47.62 C-366.48 46.13 -365.1 45.14 -363.56 42.94 C-361.45 40.32 -359.01 39.35 -356 37.94 C-349.43 34.85 -349.43 34.85 -348 32 C-346.48 31.44 -346.48 31.44 -344.62 31 C-342.6 30.52 -341.18 30.12 -339.46 28.94 C-338 28 -338 28 -335 28 C-334.93 27.54 -334.86 27.07 -334.79 26.59 C-334 25 -334 25 -331.93 24.16 C-331.06 23.94 -330.2 23.72 -329.31 23.5 C-326.17 22.66 -323.36 21.81 -320.5 20.25 C-319.68 19.84 -318.85 19.43 -318 19 C-317.34 19.33 -316.68 19.66 -316 20 C-316 19.34 -316 18.68 -316 18 C-315.28 17.88 -314.55 17.76 -313.8 17.63 C-312.84 17.47 -311.87 17.3 -310.88 17.12 C-310.4 17.04 -310.4 17.04 -307.99 16.63 C-305.93 16.24 -304.01 15.69 -302.04 15 C-298.92 13.91 -295.83 13.39 -292.56 12.94 C-292.03 12.86 -291.49 12.78 -290.94 12.7 C-289.85 12.54 -288.75 12.39 -287.66 12.23 C-286.58 12.08 -285.5 11.92 -284.42 11.76 C-270.6 9.66 -256.53 8.81 -242.56 8.81 C-241.64 8.81 -240.71 8.81 -239.75 8.81 C-234.76 8.85 -229.89 9.14 -224.95 9.78 C-222.28 10.08 -219.68 10.07 -217 10 C-217 10.66 -217 11.32 -217 12 C-216.68 11.91 -216.68 11.91 -215.06 11.44 C-214.38 11.29 -213.7 11.15 -213 11 C-212.67 11.33 -212.34 11.66 -212 12 C-210.55 12.28 -210.55 12.28 -208.68 12.5 C-207.98 12.58 -207.29 12.66 -206.58 12.75 C-205.83 12.83 -205.08 12.91 -204.31 13 C-203.93 13.04 -203.93 13.04 -202 13.27 C-196.55 13.87 -191.1 14.32 -185.63 14.68 C-175.97 15.31 -175.97 15.31 -172.49 16.53 C-170.33 17.21 -168.25 17.06 -166 17 C-166 17.66 -166 18.32 -166 19 C-165.64 18.99 -165.64 18.99 -163.8 18.96 C-154.94 18.88 -154.94 18.88 -151.81 19.5 C-148.81 20.03 -146.06 20.04 -143.03 19.94 C-141 20 -141 20 -138.68 20.5 C-136.07 20.99 -133.71 21.13 -131.05 21.13 C-130.59 21.13 -130.59 21.13 -128.23 21.14 C-127.27 21.13 -126.3 21.13 -125.31 21.12 C-124.84 21.13 -124.84 21.13 -122.46 21.14 C-116.96 21.13 -111.63 20.84 -106.18 20.12 C-103.9 19.99 -102.17 20.33 -100 21 C-99.67 20.34 -99.34 19.68 -99 19 C-98.4 19.01 -97.79 19.02 -97.17 19.04 C-96.37 19.04 -95.57 19.05 -94.75 19.06 C-93.96 19.07 -93.17 19.09 -92.36 19.1 C-90.08 19 -88.19 18.6 -86 18 C-84.88 17.84 -83.75 17.69 -82.62 17.56 C-79.86 17.19 -77.42 16.49 -74.79 15.54 C-71.49 14.55 -68.06 14.09 -64.66 13.5 C-62.51 13.1 -60.52 12.6 -58.44 11.94 C-54.7 10.77 -50.93 10.58 -47.04 10.34 C-46.37 10.23 -45.69 10.12 -45 10 C-44.67 9.34 -44.34 8.68 -44 8 C-42.36 7.44 -42.36 7.44 -40.19 7 C-39.38 6.84 -38.58 6.67 -37.75 6.5 C-34.2 5.85 -30.64 5.25 -27.07 4.7 C-25.09 4.38 -23.19 4.07 -21.29 3.41 C-19.35 2.79 -17.89 3.41 -16 4 C-16 3.34 -16 2.68 -16 2 C-14.02 2.33 -12.04 2.66 -10 3 C-9.67 2.34 -9.34 1.68 -9 1 C-7.88 0.97 -6.75 0.95 -5.62 0.94 C-5 0.93 -4.37 0.91 -3.73 0.9 C-2 1 -2 1 0 2 C0 1.34 0 0.68 0 0 Z M111 110 C112 113 112 113 112 113 Z M-410 138 C-409 141 -409 141 -409 141 Z M101 156 C102 158 102 158 102 158 Z M-102 612 C-101 614 -101 614 -101 614 Z M-103 616 C-102 618 -102 618 -102 618 Z M-319 626 C-318 629 -318 629 -318 629 Z M-124 670 C-123 672 -123 672 -123 672 Z " fill="#F4EEE1" transform="translate(660,270)"/>
<path d="M0 0 C0.99 0.33 1.98 0.66 3 1 C2.29 2.92 2.29 2.92 1 5 C-1.16 5.83 -1.16 5.83 -3.62 6.25 C-4.03 6.32 -4.03 6.32 -6.1 6.7 C-6.73 6.8 -7.35 6.9 -8 7 C-8 7.66 -8 8.32 -8 9 C-8.99 8.67 -9.98 8.34 -11 8 C-11 7.34 -11 6.68 -11 6 C-7.37 3.33 -4.44 2.52 0 2 C0 1.34 0 0.68 0 0 Z " fill="#E6D3AF" transform="translate(488,991)"/>
<path d="M0 0 C1.32 0 2.64 0 4 0 C4 0.66 4 1.32 4 2 C3.34 2 2.68 2 2 2 C1.75 2.72 1.5 3.44 1.25 4.19 C0.03 7.28 -1.85 9.49 -4 12 C-4.99 11.67 -5.98 11.34 -7 11 C-6.21 9.87 -5.42 8.75 -4.62 7.62 C-4.18 7 -3.74 6.37 -3.29 5.73 C-2 4 -2 4 0 2 C0 1.34 0 0.68 0 0 Z " fill="#E5CCA0" transform="translate(486,568)"/>
<path d="M0 0 C1.98 0.66 3.96 1.32 6 2 C6 2.66 6 3.32 6 4 C6.99 4.33 7.98 4.66 9 5 C9.33 6.65 9.66 8.3 10 10 C9.01 10 8.02 10 7 10 C5.68 8.5 5.68 8.5 4.44 6.56 C2.19 3.09 2.19 3.09 0 2 C0 1.34 0 0.68 0 0 Z " fill="#F2A93B" transform="translate(742,299)"/>
<path d="M0 0 C0.99 0.33 1.98 0.66 3 1 C1.7 3.59 0.68 3.96 -2 5 C-4.58 5.2 -4.58 5.2 -7.25 5.12 C-8.14 5.11 -9.03 5.09 -9.95 5.07 C-10.29 5.06 -10.29 5.06 -12 5 C-12 4.34 -12 3.68 -12 3 C-11.61 2.93 -11.61 2.93 -9.63 2.6 C-8.61 2.42 -7.58 2.24 -6.56 2.06 C-6.05 1.98 -5.53 1.89 -5 1.8 C-1.11 1.11 -1.11 1.11 0 0 Z " fill="#E4C999" transform="translate(356,285)"/>
<path d="M0 0 C0 4.57 0 4.57 -1 7 C-2.44 8.4 -3.94 9.63 -5.53 10.85 C-7 12 -7 12 -9 14 C-8.45 10.29 -6.74 7.52 -4 5 C-3.34 5 -2.68 5 -2 5 C-1.86 4.36 -1.71 3.72 -1.56 3.06 C-1 1 -1 1 0 0 Z " fill="#E7BD79" transform="translate(503,546)"/>
<path d="M0 0 C0.99 0 1.98 0 3 0 C2.67 1.98 2.34 3.96 2 6 C2.66 6 3.32 6 4 6 C4.33 7.32 4.66 8.64 5 10 C3.12 9.88 3.12 9.88 1 9 C-0.43 6.52 -1.3 4.11 -0.54 1.3 C-0.36 0.87 -0.18 0.44 0 0 Z " fill="#EADABD" transform="translate(765,340)"/>
<path d="M0 0 C0 1.32 0 2.64 0 4 C-1.65 4 -3.3 4 -5 4 C-5 3.34 -5 2.68 -5 2 C-6.98 2.33 -8.96 2.66 -11 3 C-11 2.34 -11 1.68 -11 1 C-7.32 -0.18 -3.82 -0.1 0 0 Z " fill="#E8D5B2" transform="translate(424,1004)"/>
<path d="M0 0 C0.66 0 1.32 0 2 0 C2.37 5.54 2.37 5.54 0.5 7.88 C0.25 8.06 0.25 8.06 -1 9 C-1.66 8.67 -2.32 8.34 -3 8 C-2.69 7.04 -2.38 6.08 -2.06 5.12 C-1.98 4.86 -1.98 4.86 -1.54 3.51 C-1 2 -1 2 0 0 Z " fill="#E9DABE" transform="translate(684,547)"/>
<path d="M0 0 C0.66 0 1.32 0 2 0 C3.33 7.3 3.33 7.3 2 11 C1.01 11 0.02 11 -1 11 C-1.08 8.06 -1 5.75 0 3 C0 2.01 0 1.02 0 0 Z " fill="#E5D0AA" transform="translate(343,874)"/>
<path d="M0 0 C0.99 0.17 0.99 0.17 6 1 C6 1.66 6 2.32 6 3 C6.99 3 7.98 3 9 3 C9.33 4.32 9.66 5.64 10 7 C8.02 6.34 6.04 5.68 4 5 C4 4.01 4 3.02 4 2 C2.68 1.67 1.36 1.34 0 1 C0 0.67 0 0.34 0 0 Z " fill="#E1EEF7" transform="translate(720,285)"/>
<path d="M0 0 C2.61 3.65 2.61 3.65 3 6 C2.06 7.69 2.06 7.69 1 9 C0.01 8.67 -0.98 8.34 -2 8 C-1.33 5.33 -0.67 2.67 0 0 Z " fill="#EFD8B2" transform="translate(603,710)"/>
<path d="M0 0 C0.99 0.33 1.98 0.66 3 1 C2.86 1.56 2.71 2.11 2.56 2.69 C1.97 5.11 1.48 7.55 1 10 C-1 8 -1 8 -1.23 6.31 C-1.22 5.69 -1.2 5.07 -1.19 4.44 C-1.18 3.82 -1.17 3.2 -1.17 2.56 C-1 1 -1 1 0 0 Z " fill="#E1BE81" transform="translate(559,874)"/>
<path d="M0 0 C0.99 0 1.98 0 3 0 C2.67 2.64 2.34 5.28 2 8 C1.01 8 0.02 8 -1 8 C-0.67 5.36 -0.34 2.72 0 0 Z " fill="#E4E1D5" transform="translate(769,364)"/>
<path d="M0 0 C0.66 0.33 1.32 0.66 2 1 C1.5 4.69 0.9 6.6 -2 9 C-2.66 8.67 -3.32 8.34 -4 8 C-2.25 4.12 -2.25 4.12 0 3 C0 2.01 0 1.02 0 0 Z " fill="#E4C795" transform="translate(436,646)"/>
<path d="M0 0 C0 0.66 0 1.32 0 2 C-3.88 3.67 -3.88 3.67 -6 4 C-8.38 2.62 -8.38 2.62 -10 1 C-8.9 0.83 -7.79 0.66 -6.69 0.5 C-6.07 0.41 -5.46 0.31 -4.82 0.22 C-3 0 -3 0 0 0 Z " fill="#E5ECED" transform="translate(462,1003)"/>
<path d="M0 0 C0.33 0.99 0.66 1.98 1 3 C0.22 4.39 0.22 4.39 -0.94 5.69 C-1.32 6.12 -1.7 6.56 -2.09 7.01 C-2.39 7.34 -2.69 7.66 -3 8 C-3.99 7.67 -4.98 7.34 -6 7 C-4.02 4.69 -2.04 2.38 0 0 Z " fill="#E9EEF0" transform="translate(522,960)"/>
<path d="M0 0 C0.66 0 1.32 0 2 0 C1.81 0.62 1.63 1.24 1.44 1.88 C1 4 1 4 2 6 C1.34 6.66 0.68 7.32 0 8 C0 7.34 0 6.68 0 6 C-0.66 5.67 -1.32 5.34 -2 5 C-1.12 1.12 -1.12 1.12 0 0 Z " fill="#E6CA99" transform="translate(619,671)"/>
<path d="M0 0 C0.99 0.99 1.98 1.98 3 3 C2.34 3 1.68 3 1 3 C0.67 4.65 0.34 6.3 0 8 C-1.06 6.75 -1.06 6.75 -2 5 C-1.48 1.48 -1.48 1.48 0 0 Z " fill="#EDD2A4" transform="translate(666,578)"/>
<path d="M0 0 C3 1 3 1 3 1 Z " fill="#F2A93B" transform="translate(430,1009)"/>
<path d="M0 0 C3 1 3 1 3 1 Z " fill="#F2A93B" transform="translate(297,486)"/>
<path d="" fill="#F2A93B" transform="translate(0,0)"/>
<path d="M0 0 C3 1 3 1 3 1 Z " fill="#F2A93B" transform="translate(667,270)"/>
<path d="" fill="#F2A93B" transform="translate(0,0)"/>
<path d="M0 0 C2 1 2 1 2 1 Z " fill="#F2A93B" transform="translate(315,493)"/>
<path d="" fill="#F2A93B" transform="translate(0,0)"/>
<path d="" fill="#F2A93B" transform="translate(0,0)"/>
<path d="" fill="#F2A93B" transform="translate(0,0)"/>
<path d="" fill="#F2A93B" transform="translate(0,0)"/>
<path d="" fill="#F2A93B" transform="translate(0,0)"/>
<path d="" fill="#F2A93B" transform="translate(0,0)"/>
<path d="" fill="#F2A93B" transform="translate(0,0)"/>
<path d="" fill="#F2A93B" transform="translate(0,0)"/>
<path d="" fill="#F2A93B" transform="translate(0,0)"/>
<path d="" fill="#F2A93B" transform="translate(0,0)"/>
<path d="" fill="#F2A93B" transform="translate(0,0)"/>
<path d="" fill="#F2A93B" transform="translate(0,0)"/>
<path d="" fill="#F2A93B" transform="translate(0,0)"/>
<path d="" fill="#F2A93B" transform="translate(0,0)"/>
<path d="" fill="#F2A93B" transform="translate(0,0)"/>
<path d="" fill="#F2A93B" transform="translate(0,0)"/>
<path d="" fill="#F2A93B" transform="translate(0,0)"/>
<path d="" fill="#F2A93B" transform="translate(0,0)"/>
<path d="" fill="#F2A93B" transform="translate(0,0)"/>
<path d="" fill="#F2A93B" transform="translate(0,0)"/>
<path d="" fill="#F2A93B" transform="translate(0,0)"/>
<path d="" fill="#F2A93B" transform="translate(0,0)"/>
<path d="" fill="#F2A93B" transform="translate(0,0)"/>
<path d="" fill="#F2A93B" transform="translate(0,0)"/>
<path d="" fill="#F2A93B" transform="translate(0,0)"/>
<path d="" fill="#F2A93B" transform="translate(0,0)"/>
<path d="" fill="#F2A93B" transform="translate(0,0)"/>
<path d="" fill="#F2A93B" transform="translate(0,0)"/>
<path d="" fill="#F2A93B" transform="translate(0,0)"/>
<path d="" fill="#F2A93B" transform="translate(0,0)"/>
<path d="" fill="#F2A93B" transform="translate(0,0)"/>
<path d="" fill="#F2A93B" transform="translate(0,0)"/>
<path d="" fill="#F2A93B" transform="translate(0,0)"/>
<path d="" fill="#F2A93B" transform="translate(0,0)"/>
<path d="" fill="#F2A93B" transform="translate(0,0)"/>
<path d="" fill="#F2A93B" transform="translate(0,0)"/>
<path d="" fill="#F2A93B" transform="translate(0,0)"/>
<path d="" fill="#F2A93B" transform="translate(0,0)"/>
<path d="" fill="#F2A93B" transform="translate(0,0)"/>
<path d="" fill="#F2A93B" transform="translate(0,0)"/>
<path d="" fill="#F2A93B" transform="translate(0,0)"/>
<path d="" fill="#F2A93B" transform="translate(0,0)"/>
<path d="" fill="#F2A93B" transform="translate(0,0)"/>
<path d="" fill="#F2A93B" transform="translate(0,0)"/>
<path d="" fill="#F2A93B" transform="translate(0,0)"/>
<path d="" fill="#F2A93B" transform="translate(0,0)"/>
<path d="" fill="#F2A93B" transform="translate(0,0)"/>
<path d="" fill="#F2A93B" transform="translate(0,0)"/>
<path d="" fill="#F2A93B" transform="translate(0,0)"/>
<path d="" fill="#F2A93B" transform="translate(0,0)"/>
<path d="" fill="#F2A93B" transform="translate(0,0)"/>
<path d="" fill="#F2A93B" transform="translate(0,0)"/>
<path d="" fill="#F2A93B" transform="translate(0,0)"/>
<path d="" fill="#F2A93B" transform="translate(0,0)"/>
<path d="" fill="#F2A93B" transform="translate(0,0)"/>
<path d="" fill="#F2A93B" transform="translate(0,0)"/>
<path d="" fill="#F2A93B" transform="translate(0,0)"/>
<path d="" fill="#F2A93B" transform="translate(0,0)"/>
<path d="" fill="#F2A93B" transform="translate(0,0)"/>
<path d="" fill="#F2A93B" transform="translate(0,0)"/>
<path d="" fill="#F2A93B" transform="translate(0,0)"/>
<path d="" fill="#F2A93B" transform="translate(0,0)"/>
<path d="" fill="#F2A93B" transform="translate(0,0)"/>
<path d="" fill="#F2A93B" transform="translate(0,0)"/>
<path d="" fill="#F2A93B" transform="translate(0,0)"/>
<path d="" fill="#F2A93B" transform="translate(0,0)"/>
<path d="" fill="#F2A93B" transform="translate(0,0)"/>
<path d="" fill="#F2A93B" transform="translate(0,0)"/>
<path d="" fill="#F2A93B" transform="translate(0,0)"/>
<path d="" fill="#F2A93B" transform="translate(0,0)"/>
<path d="" fill="#F2A93B" transform="translate(0,0)"/>
<path d="" fill="#F2A93B" transform="translate(0,0)"/>
<path d="" fill="#F2A93B" transform="translate(0,0)"/>
<path d="" fill="#F2A93B" transform="translate(0,0)"/>
<path d="" fill="#F2A93B" transform="translate(0,0)"/>
<path d="" fill="#F2A93B" transform="translate(0,0)"/>
<path d="" fill="#F2A93B" transform="translate(0,0)"/>
<path d="" fill="#F2A93B" transform="translate(0,0)"/>
<path d="" fill="#F2A93B" transform="translate(0,0)"/>
<path d="" fill="#F2A93B" transform="translate(0,0)"/>
<path d="" fill="#F2A93B" transform="translate(0,0)"/>
<path d="" fill="#F2A93B" transform="translate(0,0)"/>
<path d="" fill="#F2A93B" transform="translate(0,0)"/>
<path d="" fill="#F2A93B" transform="translate(0,0)"/>
<path d="" fill="#F2A93B" transform="translate(0,0)"/>
<path d="" fill="#F2A93B" transform="translate(0,0)"/>
<path d="" fill="#F2A93B" transform="translate(0,0)"/>
<path d="" fill="#F2A93B" transform="translate(0,0)"/>
<path d="" fill="#F2A93B" transform="translate(0,0)"/>
<path d="" fill="#F2A93B" transform="translate(0,0)"/>
<path d="" fill="#F2A93B" transform="translate(0,0)"/>
<path d="" fill="#F2A93B" transform="translate(0,0)"/>
<path d="" fill="#F2A93B" transform="translate(0,0)"/>
<path d="" fill="#F2A93B" transform="translate(0,0)"/>
<path d="" fill="#F2A93B" transform="translate(0,0)"/>
<path d="" fill="#F2A93B" transform="translate(0,0)"/>
</svg>
